<svg xmlns="http://www.w3.org/2000/svg" viewBox="0 0 15.875 18.582" height="70.23" width="60"><path d="M12.408 6.758h.845l-.089.845 2.711-1.69-2.356-1.689-.089.845s-.576-.006-.83-.006c-2.347 0-3.507.775-3.062 2.736.23 1.01.474 1.593.92 3.181.59 2.102-1.196 4.223-4.004 4.223-3.477 0-4.871-3.575-1.92-10.468C5.137 3.322 5.925 1.77 6.914.081A2.436 2.436 0 006.287 0C5.35 0 4.477.51 3.96 1.267l-.174.29C1.577 5.27.605 8.26.231 10.137c-.914 4.572.852 8.426 5.868 8.446 4.372.017 8.882-4.245 6.799-8.446-1.004-2.024-1.685-3.379-.49-3.379zm-3.821 4.223c-.098.933-.934 1.69-1.867 1.69-.933 0-1.61-.757-1.511-1.69.098-.933.934-1.689 1.867-1.689.933 0 1.61.756 1.51 1.69" fill="#fff"/></svg>