<svg xmlns="http://www.w3.org/2000/svg" width="73.026" height="73.026"><path data-name="Tracé 2102" d="M36.513 51.727a2.283 2.283 0 0 1-2.282-2.282V2.282a2.282 2.282 0 0 1 4.564 0v47.163a2.283 2.283 0 0 1-2.282 2.282Zm0 0" fill="#e31836"/><path data-name="Tracé 2103" d="M36.513 51.727a2.265 2.265 0 0 1-1.613-.67l-12.171-12.17a2.283 2.283 0 0 1 3.229-3.229l10.558 10.559 10.558-10.559a2.283 2.283 0 0 1 3.229 3.229L38.132 51.058a2.287 2.287 0 0 1-1.619.67Zm0 0" fill="#e31836"/><path data-name="Tracé 2104" d="M64.659 73.026H8.368A8.375 8.375 0 0 1 0 64.659V50.966a2.282 2.282 0 0 1 4.564 0v13.692a3.809 3.809 0 0 0 3.8 3.8h56.295a3.809 3.809 0 0 0 3.8-3.8V50.966a2.282 2.282 0 0 1 4.564 0v13.692a8.375 8.375 0 0 1-8.364 8.368Zm0 0" fill="#e31836"/></svg>