<svg xmlns="http://www.w3.org/2000/svg" width="73.026" height="72.818"><g data-name="Groupe 654" fill="#e31836"><path data-name="Tracé 2036" d="M23.557 36.607c0-.271.271-.812.271-1.082l11.631-11.632a1.307 1.307 0 0 1 1.894 0l11.632 11.632a1.308 1.308 0 0 1 0 1.894L37.353 49.051c-.271.271-.541.271-1.082.271-.271 0-.812-.271-1.082-.271L23.557 37.419c.27 0 0-.271 0-.812Zm12.984-9.739-9.739 9.739 9.739 9.739 9.739-9.739Z"/><g data-name="Groupe 653"><path data-name="Tracé 2096" d="M71.931 65.279a14.333 14.333 0 0 1-1.526-3.636 6.348 6.348 0 0 1-.2-1.387 1.07 1.07 0 0 0-1.069-1.048h-.022a1.07 1.07 0 0 0-1.048 1.091 8.449 8.449 0 0 0 .261 1.854 16.359 16.359 0 0 0 1.726 4.152c.987 1.806 1.252 2.291-.1 3.646-1.112 1.112-1.712.856-3.444-.121a9.437 9.437 0 0 0-4.8-1.56 11.341 11.341 0 0 0-4.6.869 10.455 10.455 0 0 1-7.675 0 11.341 11.341 0 0 0-4.6-.869 11.34 11.34 0 0 0-4.6.869 9.16 9.16 0 0 1-3.837.73 9.161 9.161 0 0 1-3.837-.73 11.343 11.343 0 0 0-4.6-.869 11.34 11.34 0 0 0-4.6.869 9.16 9.16 0 0 1-3.837.73 9.16 9.16 0 0 1-3.838-.73 11.348 11.348 0 0 0-4.575-.869 9.438 9.438 0 0 0-4.8 1.557c-1.732.977-2.332 1.233-3.445.121s-.856-1.713.121-3.444a9.439 9.439 0 0 0 1.557-4.8 11.344 11.344 0 0 0-.869-4.6 10.455 10.455 0 0 1 0-7.675 11.345 11.345 0 0 0 .869-4.6 11.343 11.343 0 0 0-.869-4.6 9.16 9.16 0 0 1-.73-3.837 9.161 9.161 0 0 1 .73-3.837 11.346 11.346 0 0 0 .869-4.6 11.344 11.344 0 0 0-.869-4.6 9.16 9.16 0 0 1-.73-3.837 9.162 9.162 0 0 1 .73-3.838 11.348 11.348 0 0 0 .869-4.6 9.439 9.439 0 0 0-1.557-4.8c-.975-1.7-1.231-2.301-.119-3.41s1.712-.856 3.444.121a9.437 9.437 0 0 0 4.8 1.557 11.342 11.342 0 0 0 4.6-.869 9.161 9.161 0 0 1 3.837-.73 9.161 9.161 0 0 1 3.837.73c.344.13.7.265 1.1.389a1.07 1.07 0 1 0 .633-2.044c-.336-.1-.646-.222-.974-.346a11.346 11.346 0 0 0-4.6-.869 11.341 11.341 0 0 0-4.6.869 9.161 9.161 0 0 1-3.838.73 7.467 7.467 0 0 1-3.744-1.284C5.717.196 3.668-.96 1.354 1.354S.2 5.717 1.125 7.363a7.467 7.467 0 0 1 1.28 3.747 9.162 9.162 0 0 1-.73 3.838 11.348 11.348 0 0 0-.869 4.6 11.344 11.344 0 0 0 .869 4.6 9.16 9.16 0 0 1 .73 3.837 9.161 9.161 0 0 1-.73 3.837 11.346 11.346 0 0 0-.869 4.6 11.344 11.344 0 0 0 .869 4.6 9.16 9.16 0 0 1 .73 3.837 9.16 9.16 0 0 1-.73 3.837 12.592 12.592 0 0 0 0 9.191 9.161 9.161 0 0 1 .73 3.837 7.466 7.466 0 0 1-1.281 3.746c-.928 1.646-2.084 3.695.23 6.008a3.969 3.969 0 0 0 2.846 1.34 6.642 6.642 0 0 0 3.159-1.125 7.466 7.466 0 0 1 3.747-1.281 9.162 9.162 0 0 1 3.838.73 11.345 11.345 0 0 0 4.6.869 11.341 11.341 0 0 0 4.6-.869 9.161 9.161 0 0 1 3.837-.73 9.161 9.161 0 0 1 3.837.73 11.343 11.343 0 0 0 4.6.869 11.341 11.341 0 0 0 4.6-.869 9.16 9.16 0 0 1 3.837-.73 9.159 9.159 0 0 1 3.837.73 12.59 12.59 0 0 0 9.191 0 9.161 9.161 0 0 1 3.837-.73 7.467 7.467 0 0 1 3.747 1.281c1.646.929 3.694 2.084 6.008-.23 2.487-2.488 1.506-4.283.467-6.184Z"/><path data-name="Tracé 2097" d="M29.157 4.5a11.194 11.194 0 0 0 3.413-.824 10.456 10.456 0 0 1 7.675 0 11.342 11.342 0 0 0 4.6.869 11.34 11.34 0 0 0 4.6-.869 10.456 10.456 0 0 1 7.675 0 11.345 11.345 0 0 0 4.6.869 9.439 9.439 0 0 0 4.8-1.557c1.732-.977 2.332-1.233 3.445-.121s.856 1.713-.121 3.444a9.437 9.437 0 0 0-1.557 4.8 11.341 11.341 0 0 0 .869 4.6 9.161 9.161 0 0 1 .73 3.837 9.16 9.16 0 0 1-.73 3.837 11.342 11.342 0 0 0-.869 4.6 11.34 11.34 0 0 0 .869 4.6 9.16 9.16 0 0 1 .73 3.837 9.161 9.161 0 0 1-.73 3.837 11.343 11.343 0 0 0-.869 4.6 11.34 11.34 0 0 0 .869 4.6 9.161 9.161 0 0 1 .73 3.837 6.773 6.773 0 0 1-.427 2.479 1.07 1.07 0 1 0 2 .749 8.934 8.934 0 0 0 .552-3.254 11.341 11.341 0 0 0-.869-4.6 9.161 9.161 0 0 1-.73-3.837 9.161 9.161 0 0 1 .73-3.837 11.343 11.343 0 0 0 .869-4.6 11.341 11.341 0 0 0-.869-4.6 9.16 9.16 0 0 1-.73-3.837 9.159 9.159 0 0 1 .73-3.837 11.341 11.341 0 0 0 .869-4.6 11.341 11.341 0 0 0-.869-4.6 9.161 9.161 0 0 1-.73-3.837 7.467 7.467 0 0 1 1.281-3.747c.928-1.646 2.084-3.694-.23-6.008S67.1.172 65.454 1.1a7.467 7.467 0 0 1-3.747 1.281 9.16 9.16 0 0 1-3.838-.73 12.592 12.592 0 0 0-9.192 0 9.161 9.161 0 0 1-3.837.73 9.161 9.161 0 0 1-3.837-.73 12.592 12.592 0 0 0-9.192 0 9.009 9.009 0 0 1-2.824.692 1.07 1.07 0 1 0 .169 2.133Z"/><path data-name="Tracé 2098" d="m63.284 14.142-.212-3.573a1.07 1.07 0 0 0-1-1l-3.573-.212a1.07 1.07 0 1 0-.127 2.135l1.2.071-6.745 6.745a1.07 1.07 0 0 0 1.513 1.513l6.745-6.745.071 1.2a1.07 1.07 0 0 0 1.067 1.006h.064a1.07 1.07 0 0 0 .997-1.14Z"/><path data-name="Tracé 2099" d="m20.195 18.304-6.745-6.742 1.2-.071a1.072 1.072 0 0 0-.133-2.139l-3.57.21a1.07 1.07 0 0 0-1 1l-.213 3.573a1.069 1.069 0 0 0 1 1.131h.064a1.07 1.07 0 0 0 1.067-1.006l.071-1.2 6.745 6.745a1.07 1.07 0 0 0 1.513-1.513Z"/><path data-name="Tracé 2100" d="M57.36 62.462a1.07 1.07 0 0 0 1.067 1.006h.064l3.573-.212a1.07 1.07 0 0 0 1-1l.212-3.573a1.07 1.07 0 0 0-2.136-.127l-.071 1.2-6.745-6.745a1.07 1.07 0 0 0-1.513 1.513l6.745 6.745-1.2.071a1.069 1.069 0 0 0-.996 1.122Z"/><path data-name="Tracé 2101" d="M20.195 53.001a1.07 1.07 0 0 0-1.513 0l-6.745 6.745-.071-1.2a1.07 1.07 0 0 0-2.135.127l.213 3.573a1.07 1.07 0 0 0 1 1l3.573.212h.064a1.07 1.07 0 0 0 .062-2.138l-1.2-.071 6.745-6.745a1.07 1.07 0 0 0 0-1.513Z"/></g></g></svg>